<?xml version="1.0" encoding="UTF-8"?>
<svg width="84px" height="114px" viewBox="0 0 84 114" version="1.1" xmlns="http://www.w3.org/2000/svg" xmlns:xlink="http://www.w3.org/1999/xlink">
    <!-- Generator: Sketch 43.2 (39069) - http://www.bohemiancoding.com/sketch -->
    <title>noun_55887_cc</title>
    <desc>Created with Sketch.</desc>
    <defs></defs>
    <g id="Page-1" stroke="none" stroke-width="1" fill="none" fill-rule="evenodd">
        <g id="Desktop-HD" transform="translate(-678.000000, -79.000000)" fill-rule="nonzero" fill="#000000">
            <g id="noun_55887_cc" transform="translate(678.000000, 79.000000)">
                <path d="M19.44,64.9377358 C17.28,64.9377358 15.6,63.2603774 15.6,61.1037736 L15.6,21.0867925 C15.6,18.9301887 17.28,17.2528302 19.44,17.2528302 C21.6,17.2528302 23.28,18.9301887 23.28,21.0867925 L23.28,61.1037736 C23.28,63.0207547 21.6,64.9377358 19.44,64.9377358 Z" id="Shape"></path>
                <path d="M34.56,64.9377358 C32.4,64.9377358 30.72,63.2603774 30.72,61.1037736 L30.72,11.2622642 C30.72,9.10566038 32.4,7.42830189 34.56,7.42830189 C36.72,7.42830189 38.4,9.10566038 38.4,11.2622642 L38.4,61.1037736 C38.4,63.2603774 36.72,64.9377358 34.56,64.9377358 Z" id="Shape"></path>
                <path d="M49.44,64.9377358 C47.28,64.9377358 45.6,63.2603774 45.6,61.1037736 L45.6,12.2207547 C45.6,10.0641509 47.28,8.38679245 49.44,8.38679245 C51.6,8.38679245 53.28,10.0641509 53.28,12.2207547 L53.28,61.1037736 C53.28,63.0207547 51.6,64.9377358 49.44,64.9377358 Z" id="Shape"></path>
                <path d="M4.56,92.0150943 C2.4,92.0150943 0.72,90.3377358 0.72,88.1811321 L0.72,32.5886792 C0.72,30.4320755 2.4,28.754717 4.56,28.754717 C6.72,28.754717 8.4,30.4320755 8.4,32.5886792 L8.4,88.1811321 C8.4,90.3377358 6.72,92.0150943 4.56,92.0150943 Z" id="Shape"></path>
                <path d="M64.56,64.9377358 C62.4,64.9377358 60.72,63.2603774 60.72,61.1037736 L60.72,19.8886792 C60.72,17.7320755 62.4,16.054717 64.56,16.054717 C66.72,16.054717 68.4,17.7320755 68.4,19.8886792 L68.4,60.8641509 C68.4,63.0207547 66.72,64.9377358 64.56,64.9377358 Z" id="Shape"></path>
                <path d="M79.44,92.0150943 C77.28,92.0150943 75.6,90.3377358 75.6,88.1811321 L75.6,48.4037736 C75.6,46.2471698 77.28,44.5698113 79.44,44.5698113 C81.6,44.5698113 83.28,46.2471698 83.28,48.4037736 L83.28,88.1811321 C83.28,90.3377358 81.6,92.0150943 79.44,92.0150943 Z" id="Shape"></path>
                <path d="M19.44,36.4226415 C17.28,36.4226415 15.6,34.745283 15.6,32.5886792 C15.6,30.6716981 13.92,28.9943396 12,28.9943396 C10.08,28.9943396 8.4,30.6716981 8.4,32.5886792 C8.4,34.745283 6.72,36.4226415 4.56,36.4226415 C2.4,36.4226415 0.72,34.745283 0.72,32.5886792 C0.72,26.3584906 5.76,21.3264151 12,21.3264151 C18.24,21.3264151 23.28,26.3584906 23.28,32.5886792 C23.28,34.745283 21.6,36.4226415 19.44,36.4226415 Z" id="Shape"></path>
                <path d="M34.56,22.2849057 C32.4,22.2849057 30.72,20.6075472 30.72,18.4509434 C30.72,16.5339623 29.04,14.8566038 27.12,14.8566038 C25.2,14.8566038 23.52,16.5339623 23.52,18.4509434 C23.52,20.6075472 21.84,22.2849057 19.68,22.2849057 C17.52,22.2849057 15.6,20.6075472 15.6,18.4509434 C15.6,12.2207547 20.64,7.18867925 26.88,7.18867925 C33.12,7.18867925 38.16,12.2207547 38.16,18.4509434 C38.4,20.6075472 36.72,22.2849057 34.56,22.2849057 Z" id="Shape"></path>
                <path d="M64.56,22.2849057 C62.4,22.2849057 60.72,20.6075472 60.72,18.4509434 C60.72,16.5339623 59.04,14.8566038 57.12,14.8566038 C55.2,14.8566038 53.52,16.5339623 53.52,18.4509434 C53.52,20.6075472 51.84,22.2849057 49.68,22.2849057 C47.52,22.2849057 45.84,20.6075472 45.84,18.4509434 C45.84,12.2207547 50.88,7.18867925 57.12,7.18867925 C63.36,7.18867925 68.4,12.2207547 68.4,18.4509434 C68.4,20.6075472 66.72,22.2849057 64.56,22.2849057 Z" id="Shape"></path>
                <path d="M79.44,51.2792453 C77.28,51.2792453 75.6,49.6018868 75.6,47.445283 C75.6,45.5283019 73.92,43.8509434 72,43.8509434 C70.08,43.8509434 68.4,45.2886792 68.4,47.2056604 C68.4,49.3622642 66.72,51.0396226 64.56,51.0396226 C62.4,51.0396226 60.72,49.3622642 60.72,47.2056604 C60.72,40.9754717 65.76,35.9433962 72,35.9433962 C78.24,35.9433962 83.28,40.9754717 83.28,47.2056604 C83.28,49.3622642 81.6,51.2792453 79.44,51.2792453 Z" id="Shape"></path>
                <path d="M49.2,15.0962264 C47.04,15.0962264 45.36,13.4188679 45.36,11.2622642 C45.36,9.34528302 43.68,7.66792453 41.76,7.66792453 C39.84,7.66792453 38.16,9.34528302 38.16,11.2622642 C38.16,13.4188679 36.48,15.0962264 34.32,15.0962264 C32.16,15.0962264 30.48,13.4188679 30.48,11.2622642 C30.48,5.03207547 35.52,0 41.76,0 C48,0 53.04,5.03207547 53.04,11.2622642 C53.04,13.4188679 51.36,15.0962264 49.2,15.0962264 Z" id="Shape"></path>
                <path d="M8.64,108.069811 C7.2,108.069811 6,107.350943 5.28,106.15283 C2.4,101.120755 0.72,95.1301887 0.72,89.1396226 C0.72,86.9830189 2.4,85.3056604 4.56,85.3056604 C6.72,85.3056604 8.4,86.9830189 8.4,89.1396226 C8.4,93.9320755 9.6,98.4849057 12,102.318868 C12.96,104.235849 12.48,106.632075 10.56,107.590566 C10.08,107.830189 9.36,108.069811 8.64,108.069811 Z" id="Shape"></path>
                <path d="M73.92,109.986792 C73.2,109.986792 72.24,109.74717 71.76,109.267925 C70.08,108.069811 69.6,105.673585 70.8,103.756604 C73.92,99.4433962 75.6,93.9320755 75.6,88.4207547 C75.6,86.2641509 77.28,84.5867925 79.44,84.5867925 C81.6,84.5867925 83.28,86.2641509 83.28,88.4207547 C83.28,95.609434 81.12,102.558491 77.04,108.309434 C76.32,109.507547 75.12,109.986792 73.92,109.986792 Z" id="Shape"></path>
                <path d="M41.4156233,113.461321 C40.1398154,113.461321 39.0177773,112.606739 38.6309504,111.398867 C38.2873712,110.467898 35.4930877,106.973185 30.8920104,104.182666 C30.1423832,103.738665 29.3398976,103.282729 28.5133856,102.822019 C23.5422999,100.055371 16.7355887,96.2574963 16.8004602,87.9981328 C16.8725398,77.9723159 23.7753571,72.7254717 30.5484313,72.7254717 C34.7650844,72.7254717 38.6045212,74.5969575 41.418026,77.8935416 C44.2267254,74.7186996 48.0973967,72.8710848 52.2708021,72.8710848 C59.0390709,72.8710848 65.9250697,78.0296063 65.9995519,87.9002618 C66.0620208,95.8755604 59.5796675,99.6018224 54.841639,102.325503 C53.8421361,102.893632 52.8738676,103.452214 51.9872892,104.029892 C47.6649195,106.858604 44.5847204,110.429705 44.2219201,111.334415 C43.8783409,112.592417 42.7611081,113.423127 41.4636763,113.449385 C41.4420525,113.458934 41.4324419,113.458934 41.4156233,113.458934 L41.4156233,113.461321 Z M32.2729575,79.9141509 C28.9003,79.9141509 25.2412035,82.5664382 25.2002837,88.3976325 C25.1658248,92.4037802 28.2735801,94.4292408 33.0202832,97.0644715 C33.8149899,97.5079408 34.5924671,97.9386176 35.3117951,98.3735586 C37.8488261,99.9086445 40.286788,101.931973 42.037727,103.876415 C43.8468153,101.889332 46.3235434,99.8297582 48.6064405,98.3479739 C49.4743722,97.7787129 50.4327582,97.2243763 51.4191421,96.6700397 C56.0323173,94.0198845 58.8277895,92.1543288 58.7997917,88.3230103 C58.7588718,82.6176077 55.2268422,80.0527351 51.7443472,80.0527351 C48.6236699,80.0527351 45.8691176,81.9758566 44.3744661,85.1995369 C43.9480381,86.1205884 43.0133425,86.7175663 41.9903461,86.7175663 C41.9903461,86.7175663 41.9903461,86.7175663 41.9881924,86.7175663 C40.9651961,86.7175663 40.0326541,86.1227205 39.6040725,85.203801 C38.0577327,81.8948381 35.3204098,79.9141509 32.2751112,79.9141509 L32.2729575,79.9141509 Z" id="Shape"></path>
            </g>
        </g>
    </g>
</svg>